<?xml version="1.0" standalone="no"?>
<!DOCTYPE svg PUBLIC "-//W3C//DTD SVG 20010904//EN"
 "http://www.w3.org/TR/2001/REC-SVG-20010904/DTD/svg10.dtd">
<svg version="1.0" xmlns="http://www.w3.org/2000/svg"
 width="512.000000pt" height="512.000000pt" viewBox="0 0 512.000000 512.000000"
 preserveAspectRatio="xMidYMid meet">
<metadata>
Created by potrace 1.11, written by Peter Selinger 2001-2013
</metadata>
<g transform="translate(0.000000,512.000000) scale(0.100000,-0.100000)"
fill="#000000" stroke="none">
<path d="M3968 4485 c-2 -2 -133 -31 -293 -65 -159 -34 -299 -64 -310 -66 -11
-3 -49 -11 -85 -18 -36 -8 -109 -24 -164 -36 -54 -12 -108 -23 -119 -26 -28
-5 -235 -49 -372 -79 -60 -13 -121 -26 -135 -29 -37 -7 -70 -14 -120 -25 -46
-11 -355 -76 -400 -86 -166 -34 -193 -33 1127 -34 1014 -1 1271 2 1268 12 -2
6 -7 23 -9 37 -52 258 -88 324 -211 385 -43 21 -164 42 -177 30z"/>
<path d="M890 3848 c-75 -29 -150 -105 -179 -181 l-21 -58 0 -1327 c0 -936 3
-1339 11 -1367 24 -88 83 -161 164 -203 l50 -27 1932 -3 1932 -2 58 21 c78 30
152 104 181 182 l22 58 0 1332 c-1 1279 -1 1334 -20 1387 -10 30 -16 59 -13
65 4 5 3 7 -1 3 -4 -3 -26 14 -48 38 -22 24 -66 56 -97 71 l-56 28 -1930 2
-1930 2 -55 -21z m3624 -382 c42 -10 78 -22 82 -28 3 -5 -4 -46 -16 -89 -19
-65 -26 -79 -39 -74 -124 50 -270 43 -300 -13 -18 -34 -13 -76 11 -97 13 -10
71 -40 129 -66 139 -60 186 -93 224 -153 27 -45 30 -57 30 -130 -1 -96 -22
-145 -86 -200 -74 -63 -135 -81 -279 -81 -102 0 -138 4 -197 23 -67 21 -72 24
-64 45 5 12 9 25 9 30 2 31 25 117 31 117 4 0 34 -9 67 -21 119 -42 266 -31
294 22 25 46 11 107 -30 129 -11 6 -17 16 -14 22 4 7 3 8 -5 4 -6 -4 -42 5
-79 20 -193 77 -264 152 -263 282 0 67 19 118 62 166 43 49 86 74 166 94 83
21 165 20 267 -2z m-3109 -36 c14 -22 25 -42 25 -44 0 -2 35 -64 77 -138 65
-114 177 -335 210 -418 l10 -25 5 27 c3 15 2 25 -3 23 -10 -7 -15 76 -18 363
l-2 252 100 0 101 0 0 -465 0 -465 -113 0 -113 0 -76 138 c-42 75 -89 160
-104 187 -15 28 -62 118 -104 201 l-76 152 4 -339 4 -339 -96 0 -96 0 0 465 0
465 120 0 120 0 25 -40z m1245 -45 l0 -85 -180 0 -180 0 0 -95 0 -95 170 0
170 0 0 -90 0 -90 -170 0 -170 0 0 -110 0 -110 190 0 190 0 0 -85 0 -85 -295
0 -295 0 0 465 0 465 285 0 285 0 0 -85z m352 -15 c10 -52 20 -111 23 -130 3
-19 8 -46 11 -60 3 -14 8 -35 10 -47 2 -13 6 -35 9 -50 3 -16 15 -86 26 -158
19 -114 35 -173 36 -133 1 28 115 615 129 661 5 15 19 17 120 17 63 0 113 -3
112 -7 -2 -7 9 -73 27 -163 3 -14 14 -74 25 -135 12 -60 25 -130 30 -155 5
-25 12 -65 15 -90 13 -107 18 -130 26 -130 5 0 8 3 7 8 -2 7 10 98 18 137 2
11 7 38 10 60 3 22 15 83 26 135 11 52 22 107 24 123 2 15 6 37 8 50 3 12 10
47 16 77 19 97 9 90 126 90 l104 0 -6 -27 c-3 -16 -13 -53 -21 -83 -8 -30 -16
-62 -18 -70 -3 -15 -109 -425 -147 -570 -10 -41 -25 -97 -31 -125 l-12 -50
-118 -3 -117 -3 -1 26 c-1 14 -2 28 -4 33 -7 25 -23 105 -40 192 -11 58 -18
107 -19 128 -1 12 -4 22 -7 22 -6 0 -12 34 -26 140 -3 25 -7 52 -9 60 -1 8 -3
23 -3 33 -1 24 -21 21 -21 -3 0 -24 -42 -236 -72 -360 -11 -47 -22 -96 -24
-110 -2 -14 -11 -55 -20 -92 l-16 -68 -114 0 c-83 0 -116 3 -118 13 -5 14 -35
144 -40 173 -2 10 -12 48 -21 84 -9 36 -19 74 -21 85 -2 11 -6 29 -8 40 -3 11
-23 99 -46 195 -23 96 -44 186 -46 200 -3 14 -9 39 -13 55 -5 17 -12 43 -15
58 l-7 28 113 -3 113 -3 17 -95z m-321 -1108 c25 -23 31 -36 32 -71 1 -37 -4
-48 -31 -72 l-32 -29 -750 3 -749 2 -22 21 c-13 14 -23 39 -26 68 -5 42 -3 48
27 76 l32 30 744 0 744 0 31 -28z m1870 7 c54 -38 54 -117 2 -159 -25 -20 -42
-20 -759 -20 -441 0 -743 4 -758 10 -76 29 -77 150 -1 181 11 4 350 8 753 8
725 1 734 1 763 -20z m-1888 -380 c31 -14 55 -65 50 -104 -2 -17 -17 -42 -34
-58 l-30 -27 -750 2 -751 3 -24 28 c-36 42 -33 100 7 138 l31 29 739 0 c514 0
745 -3 762 -11z m1903 -22 c33 -38 33 -96 0 -134 l-24 -28 -748 -3 c-829 -3
-781 -6 -810 64 -12 29 -12 39 0 68 30 71 -23 67 809 64 l749 -3 24 -28z
m-1885 -385 c43 -38 46 -100 6 -140 l-27 -27 -756 0 -756 0 -24 28 c-42 49
-26 135 30 157 11 5 353 9 758 9 l738 1 31 -28z m1872 8 c51 -41 52 -119 1
-159 -26 -21 -34 -21 -770 -21 l-743 0 -26 23 c-54 47 -46 134 15 164 19 10
193 13 761 13 721 0 737 0 762 -20z m-1869 -400 c30 -30 38 -76 20 -112 -31
-61 11 -58 -792 -58 -809 0 -779 -2 -807 62 -19 47 5 110 50 129 11 4 354 7
762 6 l743 -2 24 -25z m1876 4 c33 -33 41 -86 19 -124 -11 -17 -31 -35 -45
-40 -34 -13 -1464 -13 -1498 0 -49 18 -74 85 -50 132 31 61 -13 58 806 56 744
-3 748 -3 768 -24z"/>
<path d="M443 3730 c-175 -37 -199 -46 -260 -91 -39 -29 -60 -55 -84 -104 -41
-85 -43 -156 -6 -315 22 -97 90 -410 103 -475 2 -11 13 -63 24 -115 11 -52 27
-129 36 -170 9 -41 17 -82 19 -90 2 -8 17 -80 35 -160 17 -80 35 -161 40 -180
5 -19 11 -48 14 -65 2 -16 12 -64 21 -105 19 -86 54 -245 59 -275 3 -11 10
-42 16 -70 14 -59 11 -45 46 -219 l29 -140 5 1250 c5 1276 5 1270 41 1337 5 9
6 17 2 16 -5 0 -67 -13 -140 -29z"/>
</g>
</svg>
